# xmcd
#
# Track frame offsets: 
#        182
#        16492
#        31742
#        46760
#        61092
#        81547
#        92937
#        109550
#        122460
#        133097
#        147317
#
# Disc length: 2105 seconds
#
# Revision: 6
# Processed by: cddbd v1.5.2PL0 Copyright (c) Steve Scherf et al.
# Submitted via: ExactAudioCopyFreeDBPlugin 1.0
#
DISCID=8c08370b
DTITLE=Sammy Kershaw - Feelin' Good Train
DYEAR=1994
DGENRE=Country
TTITLE0=Feelin' Good Train
TTITLE1=Third Rate Romance
TTITLE2=If You Ever Come This Way Again
TTITLE3=National Working Woman's Holiday
TTITLE4=Southbound
TTITLE5=Better Call a Preacher
TTITLE6=Paradise from Nine to One
TTITLE7=Too Far Gone to Leave
TTITLE8=If You're Gonna Walk, I'm Gonna Crawl
TTITLE9=The Heart That Time Forgot
TTITLE10=Never Bit a Bullet Like This (with George Jones)
EXTD=YEAR: 1994
EXTT0=
EXTT1=
EXTT2=
EXTT3=
EXTT4=
EXTT5=
EXTT6=
EXTT7=
EXTT8=
EXTT9=
EXTT10=
PLAYORDER=
